Coordinates
version=1
nRows=65
nColumns=12
inDegrees=yes

Units are S.I. units (second, meters, Newtons, ...)
Angles are in degrees

endheader
time	SC_y	SC_z	SC_x	AC_y	AC_z	AC_x	GH_y	GH_z	GH_yy	EL_x	PS_y
       0.0              -39.72          12.13          24.94          60.99          7.239          10.88          8.068           87.5         -5.897          21.53          46.26
  0.006861              -39.73          12.13          24.94          60.99          7.235          10.88          8.041          87.49         -5.899          21.53          46.27
   0.01372              -39.73          12.13          24.93          60.99          7.232          10.87          8.013          87.48         -5.901          21.54          46.27
   0.02058              -39.73          12.13          24.93          60.99          7.228          10.87          7.983          87.47         -5.903          21.54          46.28
   0.02744              -39.73          12.13          24.92          60.98          7.223          10.87          7.951          87.46         -5.905          21.55          46.29
    0.0343              -39.73          12.12          24.92          60.98          7.219          10.86          7.917          87.44         -5.907          21.55           46.3
   0.04117              -39.74          12.12          24.91          60.98          7.214          10.86           7.88          87.43          -5.91          21.56          46.31
   0.04803              -39.74          12.12          24.91          60.98          7.209          10.86          7.841          87.42         -5.912          21.57          46.32
   0.05489              -39.74          12.12           24.9          60.97          7.203          10.85            7.8           87.4         -5.915          21.57          46.34
   0.06175              -39.75          12.12           24.9          60.97          7.197          10.85          7.755          87.39         -5.918          21.58          46.35
   0.06861              -39.75          12.11          24.89          60.97           7.19          10.84          7.707          87.37         -5.922          21.59          46.36
   0.07547              -39.75          12.11          24.88          60.96          7.184          10.84          7.655          87.35         -5.925           21.6          46.38
   0.08233              -39.76          12.11          24.88          60.96          7.176          10.83            7.6          87.34         -5.929           21.6           46.4
   0.08919              -39.76           12.1          24.87          60.96          7.168          10.83          7.539          87.31         -5.933          21.61          46.41
   0.09605              -39.76           12.1          24.86          60.95          7.159          10.82          7.474          87.29         -5.937          21.62          46.43
    0.1029              -39.77           12.1          24.85          60.95           7.15          10.82          7.404          87.27         -5.942          21.64          46.46
    0.1098              -39.77          12.09          24.84          60.94          7.139          10.81          7.327          87.24         -5.947          21.65          46.48
    0.1166              -39.78          12.09          24.83          60.93          7.128           10.8          7.243          87.21         -5.953          21.66           46.5
    0.1235              -39.79          12.08          24.82          60.93          7.116          10.79          7.152          87.18         -5.959          21.68          46.53
    0.1304              -39.79          12.08           24.8          60.92          7.102          10.78          7.052          87.15         -5.966          21.69          46.56
    0.1372               -39.8          12.07          24.79          60.91          7.088          10.77          6.942          87.11         -5.974          21.71          46.59
    0.1441              -39.81          12.06          24.77           60.9          7.071          10.76          6.821          87.07         -5.982          21.73          46.63
    0.1509              -39.82          12.06          24.75           60.9          7.053          10.75          6.688          87.02         -5.991          21.75          46.67
    0.1578              -39.83          12.05          24.73          60.88          7.033          10.74           6.54          86.97         -6.001          21.77          46.71
    0.1647              -39.84          12.04          24.71          60.87          7.011          10.72          6.375          86.92         -6.012           21.8          46.76
    0.1715              -39.85          12.03          24.69          60.86          6.987           10.7          6.192          86.85         -6.025          21.83          46.82
    0.1784              -39.86          12.02          24.66          60.85          6.959          10.68          5.987          86.78         -6.039          21.86          46.88
    0.1852              -39.88           12.0          24.63          60.83          6.928          10.66          5.755           86.7         -6.055           21.9          46.95
    0.1921              -39.89          11.99          24.59          60.81          6.893          10.64          5.494          86.61         -6.073          21.94          47.02
     0.199              -39.91          11.97          24.55          60.79          6.853          10.61          5.198          86.51         -6.093          21.99          47.11
    0.2058              -39.94          11.95          24.51          60.77          6.807          10.58          4.859           86.4         -6.116          22.04          47.21
    0.2127              -39.96          11.93          24.45          60.74          6.755          10.54          4.471          86.26         -6.143           22.1          47.33
    0.2196              -39.99          11.91          24.39          60.71          6.695           10.5          4.022          86.11         -6.173          22.17          47.46
    0.2264              -40.03          11.88          24.32          60.67          6.625          10.45          3.501          85.93         -6.209          22.26          47.62
    0.2333              -40.07          11.84          24.24          60.63          6.543           10.4          2.891          85.72         -6.251          22.35           47.8
    0.2401              -40.11           11.8          24.14          60.58          6.446          10.33          2.172          85.48           -6.3          22.47          48.01
     0.247              -40.17          11.75          24.03          60.52          6.331          10.25          1.318          85.19         -6.358           22.6          48.27
    0.2539              -40.24           11.7          23.89          60.44          6.193          10.15         0.2943          84.84         -6.428          22.77          48.57
    0.2607              -40.32          11.63          23.72          60.36          6.026          10.04        -0.9444          84.41         -6.513          22.96          48.94
    0.2676              -40.42          11.54          23.52          60.25          5.823          9.898         -2.458          83.89         -6.616          23.21          49.39
    0.2744              -40.54          11.44          23.27          60.12          5.571          9.724         -4.325          83.26         -6.744           23.5          49.95
    0.2813               -40.7           11.3          22.95          59.95          5.258          9.507         -6.654          82.46         -6.903          23.87          50.64
    0.2882              -40.89          11.14          22.56          59.75          4.863          9.234         -9.588          81.45         -7.103          24.34          51.52
     0.295              -41.14          10.93          22.06          59.49          4.361          8.887         -13.32          80.18         -7.358          24.93          52.63
    0.3019              -41.46          10.66          21.41          59.15          3.719          8.442         -18.09          78.55         -7.684          25.69          54.05
    0.3087              -41.86          10.32          20.59          58.72          2.895          7.872         -24.22          76.45         -8.103          26.67          55.88
    0.3156              -42.38          9.876          19.53          58.17          1.842          7.143         -32.04          73.77         -8.637          27.91          58.21
    0.3225              -43.03          9.322           18.2          57.47         0.5181          6.226         -41.88          70.41         -9.309          29.48          61.14
    0.3293              -43.82          8.648          16.59          56.63         -1.095           5.11         -53.87           66.3         -10.13          31.39          64.71
    0.3362              -44.74          7.865          14.71          55.65         -2.965          3.815         -67.77          61.55         -11.08           33.6          68.85
     0.343              -45.74          7.018          12.68          54.59          -4.99          2.414         -82.82           56.4         -12.11           36.0          73.34
    0.3499              -46.74          6.171          10.65          53.53         -7.015          1.012         -97.87          51.25         -13.13          38.39          77.82
    0.3568              -47.66          5.389           8.78          52.55         -8.885        -0.2825         -111.8           46.5         -14.08           40.6          81.96
    0.3636              -48.45          4.715          7.163           51.7          -10.5         -1.399         -123.8          42.39          -14.9          42.51          85.53
    0.3705               -49.1          4.161          5.836          51.01         -11.82         -2.316         -133.6          39.03         -15.58          44.08          88.46
    0.3774              -49.62           3.72          4.781          50.46         -12.88         -3.044         -141.4          36.35         -16.11          45.32           90.8
    0.3842              -50.02          3.376          3.955          50.02          -13.7         -3.615         -147.5          34.26         -16.53           46.3          92.62
    0.3911              -50.34          3.107          3.311          49.69         -14.34          -4.06         -152.3          32.62         -16.85          47.06          94.04
    0.3979              -50.59          2.897          2.809          49.42         -14.84         -4.407         -156.1          31.35         -17.11          47.65          95.15
    0.4048              -50.78          2.732          2.413          49.22         -15.24          -4.68         -159.0          30.34         -17.31          48.12          96.03
    0.4117              -50.94          2.601          2.099          49.05         -15.55         -4.897         -161.3          29.55         -17.47          48.49          96.72
    0.4185              -51.06          2.496          1.847          48.92          -15.8         -5.071         -163.2          28.91          -17.6          48.79          97.28
    0.4254              -51.16          2.411          1.643          48.82         -16.01         -5.212         -164.7          28.39          -17.7          49.03          97.73
    0.4322              -51.24          2.341          1.476          48.73         -16.17         -5.327         -165.9          27.97         -17.78          49.23           98.1
    0.4391              -51.31          2.283          1.338          48.66         -16.31         -5.423         -167.0          27.62         -17.85          49.39           98.4
